<svg xmlns="http://www.w3.org/2000/svg" width="800" height="800" viewBox="0 0 800 800" role="img" aria-label="Borboleta simétrica de exemplo">
  <rect width="800" height="800" fill="#ffffff"/>
  <g fill="none" stroke="#1f3347" stroke-width="9" stroke-linecap="round" stroke-linejoin="round">
    <!-- asas da direita -->
    <g>
      <path d="M404 330 C470 220 600 190 660 250 C710 300 690 380 610 410 C540 436 452 420 404 392 Z" fill="#f7cd58"/>
      <path d="M404 418 C468 430 560 462 578 528 C592 580 546 626 492 614 C444 603 412 540 404 470 Z" fill="#eaf1f8"/>
      <circle cx="566" cy="292" r="30" fill="#ffffff"/>
      <circle cx="622" cy="336" r="16" fill="#ffffff"/>
      <path d="M470 300 C512 268 566 254 604 262" stroke-width="7"/>
      <circle cx="502" cy="524" r="19" fill="#ffffff"/>
      <path d="M436 470 C468 492 500 520 518 556" stroke-width="7"/>
    </g>
    <!-- asas da esquerda (espelho exato das de cima) -->
    <g transform="translate(800,0) scale(-1,1)">
      <path d="M404 330 C470 220 600 190 660 250 C710 300 690 380 610 410 C540 436 452 420 404 392 Z" fill="#f7cd58"/>
      <path d="M404 418 C468 430 560 462 578 528 C592 580 546 626 492 614 C444 603 412 540 404 470 Z" fill="#eaf1f8"/>
      <circle cx="566" cy="292" r="30" fill="#ffffff"/>
      <circle cx="622" cy="336" r="16" fill="#ffffff"/>
      <path d="M470 300 C512 268 566 254 604 262" stroke-width="7"/>
      <circle cx="502" cy="524" r="19" fill="#ffffff"/>
      <path d="M436 470 C468 492 500 520 518 556" stroke-width="7"/>
    </g>
    <!-- corpo -->
    <path d="M400 262 C420 262 428 300 428 372 C428 452 416 528 400 566 C384 528 372 452 372 372 C372 300 380 262 400 262 Z" fill="#ffffff"/>
    <path d="M400 300 L400 552" stroke-width="6"/>
    <!-- cabeça e antenas -->
    <circle cx="400" cy="238" r="30" fill="#ffffff"/>
    <path d="M414 214 C440 178 470 158 502 152"/>
    <path d="M386 214 C360 178 330 158 298 152"/>
    <circle cx="508" cy="148" r="11" fill="#1f3347"/>
    <circle cx="292" cy="148" r="11" fill="#1f3347"/>
  </g>
</svg>
